<svg aria-hidden="true" style="position: absolute; width: 0; height: 0; overflow: hidden;" version="1.1" xmlns="http://www.w3.org/2000/svg" xmlns:xlink="http://www.w3.org/1999/xlink">
<defs>
<!-- using icons.getbootstrap.com only-->

<symbol id="icon-quote"  viewBox="0 0 81 56"  xmlns="http://www.w3.org/2000/svg">
<path d="M80.5161 55.2944H42.811V34.5566C42.811 21.9883 50.7388 10.4834 66.5942 0.0419922L75.0054 7.00293C68.4312 13.5771 64.854 19.5713 64.2739 24.9854H80.5161V55.2944ZM38.1704 55.2944H0.320312V34.5566C0.320312 21.9883 8.24805 10.4834 24.1035 0.0419922L32.5146 7.00293C25.9404 13.5771 22.3633 19.5713 21.7832 24.9854H38.1704V55.2944Z"  />
</symbol>

<symbol id="icon-people-fill" xmlns="http://www.w3.org/2000/svg" width="16" height="16" fill="currentColor" class="bi bi-people-fill" viewBox="0 0 16 16">
  <path d="M7 14s-1 0-1-1 1-4 5-4 5 3 5 4-1 1-1 1zm4-6a3 3 0 1 0 0-6 3 3 0 0 0 0 6m-5.784 6A2.238 2.238 0 0 1 5 13c0-1.355.68-2.75 1.936-3.72A6.325 6.325 0 0 0 5 9c-4 0-5 3-5 4s1 1 1 1zM4.5 8a2.5 2.5 0 1 0 0-5 2.5 2.5 0 0 0 0 5"/>
</symbol>

<symbol xmlns="http://www.w3.org/2000/svg" width="16" height="16" fill="currentColor" id="icon-currency-dollar" viewBox="0 0 16 16">
  <path d="M4 10.781c.148 1.667 1.513 2.85 3.591 3.003V15h1.043v-1.216c2.27-.179 3.678-1.438 3.678-3.3 0-1.59-.947-2.51-2.956-3.028l-.722-.187V3.467c1.122.11 1.879.714 2.07 1.616h1.47c-.166-1.6-1.54-2.748-3.54-2.875V1H7.591v1.233c-1.939.23-3.27 1.472-3.27 3.156 0 1.454.966 2.483 2.661 2.917l.61.162v4.031c-1.149-.17-1.94-.8-2.131-1.718H4zm3.391-3.836c-1.043-.263-1.6-.825-1.6-1.616 0-.944.704-1.641 1.8-1.828v3.495l-.2-.05zm1.591 1.872c1.287.323 1.852.859 1.852 1.769 0 1.097-.826 1.828-2.2 1.939V8.73l.348.086z"/>
</symbol>

<symbol xmlns="http://www.w3.org/2000/svg" width="16" height="16" fill="currentColor" id="icon-person-box" viewBox="0 0 16 16">
  <path d="M1.5 1a.5.5 0 0 0-.5.5v3a.5.5 0 0 1-1 0v-3A1.5 1.5 0 0 1 1.5 0h3a.5.5 0 0 1 0 1zM11 .5a.5.5 0 0 1 .5-.5h3A1.5 1.5 0 0 1 16 1.5v3a.5.5 0 0 1-1 0v-3a.5.5 0 0 0-.5-.5h-3a.5.5 0 0 1-.5-.5M.5 11a.5.5 0 0 1 .5.5v3a.5.5 0 0 0 .5.5h3a.5.5 0 0 1 0 1h-3A1.5 1.5 0 0 1 0 14.5v-3a.5.5 0 0 1 .5-.5m15 0a.5.5 0 0 1 .5.5v3a1.5 1.5 0 0 1-1.5 1.5h-3a.5.5 0 0 1 0-1h3a.5.5 0 0 0 .5-.5v-3a.5.5 0 0 1 .5-.5"/>
  <path d="M3 14s-1 0-1-1 1-4 6-4 6 3 6 4-1 1-1 1zm8-9a3 3 0 1 1-6 0 3 3 0 0 1 6 0"/>
</symbol>

<symbol xmlns="http://www.w3.org/2000/svg" width="16" height="16" fill="currentColor" id="icon-search" viewBox="0 0 16 16">
  <path d="M11.742 10.344a6.5 6.5 0 1 0-1.397 1.398h-.001c.03.04.062.078.098.115l3.85 3.85a1 1 0 0 0 1.415-1.414l-3.85-3.85a1.007 1.007 0 0 0-.115-.1zM12 6.5a5.5 5.5 0 1 1-11 0 5.5 5.5 0 0 1 11 0"/>
</symbol>

<symbol xmlns="http://www.w3.org/2000/svg" width="16" height="16" fill="currentColor" id="icon-copy" viewBox="0 0 16 16">
  <path fill-rule="evenodd" d="M4 2a2 2 0 0 1 2-2h8a2 2 0 0 1 2 2v8a2 2 0 0 1-2 2H6a2 2 0 0 1-2-2zm2-1a1 1 0 0 0-1 1v8a1 1 0 0 0 1 1h8a1 1 0 0 0 1-1V2a1 1 0 0 0-1-1zM2 5a1 1 0 0 0-1 1v8a1 1 0 0 0 1 1h8a1 1 0 0 0 1-1v-1h1v1a2 2 0 0 1-2 2H2a2 2 0 0 1-2-2V6a2 2 0 0 1 2-2h1v1z"/>
</symbol>
<!-- +++++++++++++++ social media +++++++++++++ -->
<symbol id="icon-facebook" xmlns="http://www.w3.org/2000/svg"   viewBox="0 0 16 16">
  <path d="M16 8.049c0-4.446-3.582-8.05-8-8.05C3.58 0-.002 3.603-.002 8.05c0 4.017 2.926 7.347 6.75 7.951v-5.625h-2.03V8.05H6.75V6.275c0-2.017 1.195-3.131 3.022-3.131.876 0 1.791.157 1.791.157v1.98h-1.009c-.993 0-1.303.621-1.303 1.258v1.51h2.218l-.354 2.326H9.25V16c3.824-.604 6.75-3.934 6.75-7.951z"/>
</symbol>

<symbol id="icon-instagram" xmlns="http://www.w3.org/2000/svg"  class="bi bi-instagram" viewBox="0 0 16 16">
  <path d="M8 0C5.829 0 5.556.01 4.703.048 3.85.088 3.269.222 2.76.42a3.917 3.917 0 0 0-1.417.923A3.927 3.927 0 0 0 .42 2.76C.222 3.268.087 3.85.048 4.7.01 5.555 0 5.827 0 8.001c0 2.172.01 2.444.048 3.297.04.852.174 1.433.372 1.942.205.526.478.972.923 1.417.444.445.89.719 1.416.923.51.198 1.09.333 1.942.372C5.555 15.99 5.827 16 8 16s2.444-.01 3.298-.048c.851-.04 1.434-.174 1.943-.372a3.916 3.916 0 0 0 1.416-.923c.445-.445.718-.891.923-1.417.197-.509.332-1.09.372-1.942C15.99 10.445 16 10.173 16 8s-.01-2.445-.048-3.299c-.04-.851-.175-1.433-.372-1.941a3.926 3.926 0 0 0-.923-1.417A3.911 3.911 0 0 0 13.24.42c-.51-.198-1.092-.333-1.943-.372C10.443.01 10.172 0 7.998 0h.003zm-.717 1.442h.718c2.136 0 2.389.007 3.232.046.78.035 1.204.166 1.486.275.373.145.64.319.92.599.28.28.453.546.598.92.11.281.24.705.275 1.485.039.843.047 1.096.047 3.231s-.008 2.389-.047 3.232c-.035.78-.166 1.203-.275 1.485a2.47 2.47 0 0 1-.599.919c-.28.28-.546.453-.92.598-.28.11-.704.24-1.485.276-.843.038-1.096.047-3.232.047s-2.39-.009-3.233-.047c-.78-.036-1.203-.166-1.485-.276a2.478 2.478 0 0 1-.92-.598 2.48 2.48 0 0 1-.6-.92c-.109-.281-.24-.705-.275-1.485-.038-.843-.046-1.096-.046-3.233 0-2.136.008-2.388.046-3.231.036-.78.166-1.204.276-1.486.145-.373.319-.64.599-.92.28-.28.546-.453.92-.598.282-.11.705-.24 1.485-.276.738-.034 1.024-.044 2.515-.045v.002zm4.988 1.328a.96.96 0 1 0 0 1.92.96.96 0 0 0 0-1.92zm-4.27 1.122a4.109 4.109 0 1 0 0 8.217 4.109 4.109 0 0 0 0-8.217zm0 1.441a2.667 2.667 0 1 1 0 5.334 2.667 2.667 0 0 1 0-5.334z"/>
</symbol>


<symbol id="icon-twitterX" xmlns="http://www.w3.org/2000/svg" width="16" height="16" fill="currentColor" class="bi bi-twitter-x" viewBox="0 0 16 16">
  <path d="M12.6.75h2.454l-5.36 6.142L16 15.25h-4.937l-3.867-5.07-4.425 5.07H.316l5.733-6.57L0 .75h5.063l3.495 4.633L12.601.75Zm-.86 13.028h1.36L4.323 2.145H2.865l8.875 11.633Z"/>
</symbol>

<symbol id="icon-map-pin" xmlns="http://www.w3.org/2000/svg" class="bi bi-geo-alt-fill" viewBox="0 0 16 16">
  <path d="M8 16s6-5.686 6-10A6 6 0 0 0 2 6c0 4.314 6 10 6 10zm0-7a3 3 0 1 1 0-6 3 3 0 0 1 0 6z"/>
</symbol>


<symbol id="icon-gitHub" xmlns="http://www.w3.org/2000/svg"  class="bi bi-github" viewBox="0 0 16 16">
  <path d="M8 0C3.58 0 0 3.58 0 8c0 3.54 2.29 6.53 5.47 7.59.4.07.55-.17.55-.38 0-.19-.01-.82-.01-1.49-2.01.37-2.53-.49-2.69-.94-.09-.23-.48-.94-.82-1.13-.28-.15-.68-.52-.01-.53.63-.01 1.08.58 1.23.82.72 1.21 1.87.87 2.33.66.07-.52.28-.87.51-1.07-1.78-.2-3.64-.89-3.64-3.95 0-.87.31-1.59.82-2.15-.08-.2-.36-1.02.08-2.12 0 0 .67-.21 2.2.82.64-.18 1.32-.27 2-.27.68 0 1.36.09 2 .27 1.53-1.04 2.2-.82 2.2-.82.44 1.1.16 1.92.08 2.12.51.56.82 1.27.82 2.15 0 3.07-1.87 3.75-3.65 3.95.29.25.54.73.54 1.48 0 1.07-.01 1.93-.01 2.2 0 .21.15.46.55.38A8.012 8.012 0 0 0 16 8c0-4.42-3.58-8-8-8z"/>
</symbol>


<symbol id="icon-square" xmlns="http://www.w3.org/2000/svg"  class="bi bi-square-fill" viewBox="0 0 16 16">
  <path d="M0 2a2 2 0 0 1 2-2h12a2 2 0 0 1 2 2v12a2 2 0 0 1-2 2H2a2 2 0 0 1-2-2V2z"/>
</symbol>
</defs>
</svg>

